<?xml version="1.0" encoding="utf-8"?>
<!-- Generator: Adobe Illustrator 21.0.2, SVG Export Plug-In . SVG Version: 6.00 Build 0)  -->
<svg version="1.1" id="Layer_1" xmlns="http://www.w3.org/2000/svg" xmlns:xlink="http://www.w3.org/1999/xlink" x="0px" y="0px"
	 viewBox="0 0 928 1008" style="enable-background:new 0 0 928 1008;" xml:space="preserve">
<style type="text/css">
	.st0{fill:#800000;}
	.st1{fill:#FFFFFF;stroke:#FFFFFF;stroke-width:1.7219;stroke-miterlimit:10;}
	.st2{fill:#D6D6CE;}
	.st3{opacity:0.2;}
	.st4{stroke:#000000;stroke-width:2.2959;stroke-miterlimit:10;}
</style>
<g>
	<g>
		<path d="M459.6,3C325.9,3,217.1,111.8,217.1,245.5v151l127.8-11.3V245.5c0-63.2,51.4-114.7,114.7-114.7
			c63.2,0,114.7,51.4,114.7,114.7v139.8L702,396.5v-151C702,111.8,593.3,3,459.6,3z"/>
	</g>
	<g>
		<polygon class="st0" points="645.3,375.1 459.6,358.7 273.8,375.1 273.8,375.1 118.2,388.8 118.2,941 459.6,971.1 800.9,941 
			800.9,388.8 645.3,375.1 		"/>
	</g>
	<g>
		<g>
			<polygon class="st0" points="132,928.4 132,401.4 260.1,390.1 275.1,388.8 459.6,372.5 659.1,390.1 659.1,390.1 787.2,401.4 
				787.2,928.4 459.6,957.3 			"/>
		</g>
		<g>
			<path d="M459.6,386.4l183.3,16.2l30,2.6v0l100.5,8.9v501.7l-313.8,27.7l-313.8-27.7V414l100.5-8.9v0l30-2.6L459.6,386.4
				 M459.6,358.7l-185.7,16.4v0l-155.6,13.7V941l341.3,30.1L800.9,941V388.8l-155.6-13.7v0L459.6,358.7L459.6,358.7z"/>
		</g>
	</g>
	<g>
		<g>
			<path class="st1" d="M198.9,757.6c0,8.1,0,12.2,0,20.3c0.1,14.6-3.5,64.3,18.7,64.8c16.9,0.4,16.2-34.8,16.4-45.6
				c0.5-32.8-9.8-62.5-22.2-93c-5.9-15.9-11.9-31.8-17.9-47.7c-15.7-42.9-30.2-86.1-29.6-131.7c0.4-34,7.6-100.5,53.4-104
				c33.8-2.6,43.6,39.5,47.6,65.2c2.3,19.7,1.9,39.5,1.9,59.3c-11.8,2.6-23.6,5.3-35.5,7.8c-0.1-14.1,0.3-28.7-1.2-42.3
				c-1-9-3.4-29.6-15.2-28.7c-14.7,1.1-15,32.7-15.2,44.3c-0.7,34.8,13.7,66.9,25.7,99.6c6.1,16,12.3,32,18.3,48
				c15.5,43.2,26.6,89.2,26.1,134.8c-0.3,32.1-5.2,99.2-53,95c-21.9-1.9-35.7-19.9-43.3-39.1c-10.2-25.9-11.2-53.4-11.3-80.8
				c0-9.6,0-13.8,0.4-24.8C175,758.6,186.9,758.1,198.9,757.6z"/>
			<path class="st1" d="M325.6,810.2c0.3,11.1-0.6,39.8,15.2,40.5c16.1,0.6,14.9-28.3,15.2-38.9c0-132,0-263.9,0-395.9
				c12.1-1,24.2-2.1,36.3-3.1c0,124.1,0,248.3,0,372.4c-0.1,30.7,2.7,65-8.2,92.9c-6.5,16.7-21.1,39-43.3,36.5
				c-22.8-2.6-36.2-24.3-43.3-42.9c-10.5-27.6-8.1-60.6-8.2-90.8c0-119.8,0-239.6,0-359.3c12.1-1,24.2-2.1,36.3-3.1
				C325.6,549.1,325.6,679.7,325.6,810.2z"/>
			<path class="st1" d="M452.3,407.7c25.7-3.8,45.2,13.8,53.8,36.2c14.1,36.6,14,78.4,14,117.4c0,37.6,1.9,80.4-13.6,115.7
				c-8.5,19.2-25.5,33.2-47.2,33.1c-2,0-3,0-5.1-0.1c0,69,0,138,0,206.9c-12.1-1-24.2-2.1-36.3-3.1c0-167.7,0-335.4,0-503.2
				C429.4,409.7,440.8,408.7,452.3,407.7z M459.3,644.3c34.5,2.1,25.7-66.7,25.7-84.9c0-17.7,8.4-87.5-25.7-85.6
				c-2,0.1-3,0.2-5.1,0.3c0,56.8,0,113.5,0,170.3C456.3,644.3,457.3,644.3,459.3,644.3z"/>
			<path class="st1" d="M630.1,421.3c0,21,0,41.9,0,62.9c-17.2-1.1-34.3-2.2-51.5-3.2c0,45.9,0,91.7,0,137.6
				c12,0.2,23.9,0.4,35.9,0.5c0,21.1,0,42.1,0,63.2c-12,0.1-23.9,0.2-35.9,0.3c0,53.7,0,107.4,0,161.1c18.2-1.1,36.4-2.3,54.6-3.4
				c0,20.9,0,41.9,0,62.8c-30.3,2.6-60.6,5.2-90.8,7.7c0-165.6,0-331.3,0-496.9C571.6,416.3,600.8,418.8,630.1,421.3z"/>
			<path class="st1" d="M687,426.1c25.4,1.8,43.4,13.3,53,37.1c12.4,30.4,13.6,64.8,13.6,97.1c0.1,39-2.4,75.7-18.3,112
				c8.4,73.3,16.8,146.5,25.3,219.8c-13,1.1-26,2.2-39,3.3c-7.1-66.8-14.1-133.6-21.1-200.4c-6.2,2.2-7.4,2.2-12.9,3
				c0,66.8,0,133.5,0,200.3c-12.1,1-24.2,2.1-36.3,3.1c0-159.4,0-318.9,0-478.3C663.3,424.1,675.2,425.1,687,426.1z M692.8,631.5
				c10.9,0.6,19.2-6.3,21.8-16.6c5.1-19.6,3.6-42.7,3.5-62.9c-0.1-19.3,4.3-63.1-25.3-63.9c-2-0.1-3-0.2-5.1-0.3
				c0,47.9,0,95.8,0,143.7C689.8,631.5,690.8,631.5,692.8,631.5z"/>
		</g>
	</g>
	<g>
		<g>
			<path class="st2" d="M251.1,171.2l57.1,13.7c10.6,2.5,15.8,5.1,19.7,9.8c4.1,4.8,5.2,11.7,3.4,19.3c-1.8,7.7-6,13.3-11.8,15.8
				c-5.7,2.4-11.4,2.4-22-0.2l-57.1-13.7l3.1-13l59.3,14.2c10,2.4,14.7,0.7,16.3-6c1.6-6.6-1.8-10.2-11.8-12.6l-59.3-14.2
				L251.1,171.2z"/>
		</g>
		<g>
			<path class="st2" d="M312.8,121.1l-1.5-1.1c-8-6-14.1-6.3-18.1-1c-2.2,2.9-2.7,6.1-1.4,8.9c1.3,3.1,3.1,4.9,8.7,9.2l23,17.4
				c5.3,4,8.2,5.7,11.1,6.6c3.5,1,7.3-0.4,9.6-3.5c3-3.9,2.6-8.3-1.1-12.8c-1.5-1.7-2.9-3-7.9-7l8.1-10.8l2.4,1.8
				c15,11.4,18,23.8,8.6,36.3c-5.2,7-12.1,10.4-19.3,9.7c-6.2-0.6-10.8-2.9-21.1-10.7l-19.4-14.6c-11-8.3-14.2-12-16.1-18.5
				c-1.9-6.1-0.2-13.1,4.6-19.5c8.9-11.8,22.1-12.8,35.6-2.6l2.1,1.6L312.8,121.1z"/>
		</g>
		<g>
			<path class="st2" d="M367,100.2l18.8,33.3l-11.6,6.6l-42.7-75.4l11.6-6.6l17.8,31.4l16.6-9.4l-17.8-31.4l11.6-6.6l42.7,75.4
				l-11.6,6.6l-18.8-33.3L367,100.2z"/>
		</g>
		<g>
			<path class="st2" d="M439.1,113l-13.1,2.7l-17.5-84.9l13.1-2.7L439.1,113z"/>
		</g>
		<g>
			<path class="st2" d="M489.5,55.2l0.2-1.8c1-10-1.9-15.4-8.5-16.1c-3.6-0.4-6.6,0.9-8.3,3.4c-2,2.7-2.6,5.2-3.4,12.2l-3,28.7
				c-0.7,6.6-0.7,10,0.1,12.9c0.9,3.5,4.1,6,7.9,6.5c4.9,0.5,8.4-2,10.5-7.5c0.7-2.1,1.1-4.1,1.9-10.4l13.4,1.4l-0.3,3
				c-2,18.7-11.1,27.7-26.7,26.1c-8.7-0.9-15.2-5-18.3-11.6c-2.7-5.6-3.1-10.8-1.7-23.6l2.5-24.2c1.4-13.7,3-18.4,7.5-23.4
				c4.3-4.8,11.1-6.9,19.1-6.1c14.7,1.5,22.4,12.3,20.6,29.2l-0.3,2.6L489.5,55.2z"/>
		</g>
		<g>
			<path class="st2" d="M525.6,107.5l-12.2,14.7l-11.5-6.4l56.8-67.6l16,8.9l-26.9,84.3l-12-6.7l6-18.2L525.6,107.5z M558.5,67.2
				l-25.1,30.5l12.4,6.9L558.5,67.2z"/>
		</g>
		<g>
			<path class="st2" d="M613.9,156.4l-34.1,26.2l-4.2-5.5l4.4-6.5c-7.6,0.3-12.5-2-16.8-7.6c-4.8-6.3-5.9-13.8-2.9-20.4
				c2.7-5.7,6.6-9.8,16-17.1l19-14.6c10.9-8.4,15.5-10.6,22.2-10.6c6.4-0.2,12.7,3.3,17.6,9.6c5.8,7.5,6.9,15.5,3.3,23.2
				c-2.1,4.4-5.7,8.3-12.3,13.4l-8.2-10.6c9.5-7.3,11.6-12.7,7.1-18.4c-2.1-2.8-5.2-4.2-8.3-3.6c-3.2,0.5-5.5,1.8-11.1,6.1l-21,16.2
				c-5.7,4.4-8.4,7-10.4,9.8c-2.3,3.6-2.2,7.8,0.4,11.2c4.3,5.6,10.1,4.8,19.7-2.5l2.8-2.1l-6.7-8.8l8.8-6.7L613.9,156.4z"/>
		</g>
		<g>
			<path class="st2" d="M621.3,229c-9.5,2.3-15.5,2.4-21.1,0.1c-6.2-2.5-10.6-8.1-12.6-16.2c-2-8.1-0.8-15.1,3.6-20.2
				c4-4.6,9.3-7.4,18.7-9.7l30.7-7.6c9.5-2.3,15.5-2.4,21.1-0.1c6.2,2.5,10.6,8.1,12.6,16.2c2,8.1,0.8,15.1-3.6,20.2
				c-3.9,4.6-9.3,7.4-18.7,9.7L621.3,229z M613.4,196c-6.7,1.7-8.9,2.6-11.1,4.5c-2.4,2.2-3.4,5.8-2.5,9.5c0.9,3.7,3.5,6.4,6.6,7.2
				c3,0.7,5.1,0.5,11.9-1.2l30.2-7.5c6.8-1.7,8.8-2.4,11.1-4.5c2.4-2.2,3.4-5.8,2.5-9.5c-0.9-3.7-3.5-6.4-6.6-7.2
				c-2.8-0.6-5.2-0.5-11.9,1.2L613.4,196z"/>
		</g>
	</g>
	<g class="st3">
		<polyline points="459.6,386.4 672.9,405.2 773.4,414 773.4,915.8 459.6,943.5 		"/>
	</g>
	<g>
		<g>
			<g>
				<path d="M796.6,810.2l49.2,16.4l-17.5,3.2c-8.6,1.6-17.4,3.1-26.4,4.6l-5.4,0.9V810.2z"/>
			</g>
			<g>
				<path d="M801.2,816.6l26.3,8.8c-8.7,1.6-17.5,3.1-26.3,4.6V816.6 M792,803.8v12.7V830v10.9l10.7-1.8c8.9-1.5,17.7-3,26.4-4.6
					l35-6.5l-33.8-11.3l-26.3-8.8L792,803.8L792,803.8z"/>
			</g>
		</g>
		<g>
			<g>
				<path d="M120.4,834.5c-8.5-1.4-17.5-3-26.4-4.6l-17.5-3.2l49.3-16.4v25.2L120.4,834.5z"/>
			</g>
			<g>
				<path d="M121.2,816.6V830c-8.8-1.5-17.5-3-26.3-4.6L121.2,816.6 M130.4,803.8l-12.1,4L92,816.6l-33.8,11.3l35.1,6.5
					c9,1.7,18,3.2,26.4,4.6l10.7,1.8V830v-13.4V803.8L130.4,803.8z"/>
			</g>
		</g>
		<g>
			<g>
				<path class="st2" d="M69.9,925c-0.4,0-0.9,0-1.3-0.1l-55.5-10.5c-2.2-0.4-4.1-1.9-5-4c-0.9-2.1-0.8-4.5,0.4-6.4l31.1-50.8
					c0.6-1.1,0.7-2.4,0.1-3.5l-29.2-55.9c-1.2-2.3-1-5.1,0.5-7.2c1.3-1.8,3.4-2.8,5.6-2.8c0.4,0,0.8,0,1.2,0.1l98.8,17
					c3.1,0.5,5.5,3.1,5.7,6.3c0.2,3.1-1.7,6.1-4.7,7.1l-38.1,12.7c-0.1,0.1-0.2,0.1-0.3,0.2c-0.2,0.1-0.4,0.3-0.6,0.4
					c0,0-0.1,0-0.1,0.1c-0.3,0.2-0.5,0.3-0.7,0.4c-0.1,0.1-0.2,0.3-0.3,0.4c-0.1,0.2-0.1,0.5-0.3,0.7c-0.2,0.5-0.3,0.8-0.3,1.1
					c0,0.3,0,0.6-0.1,0.9v87.1c0,2.1-0.9,4-2.5,5.3C73,924.5,71.5,925,69.9,925z"/>
			</g>
			<g>
				<path d="M16.6,790.6l98.8,17L77,820.3c-0.8,0.3-1.5,0.8-2.2,1.3c-0.3,0.2-0.7,0.3-1.1,0.5c-0.1,0-0.1,0.1-0.1,0.1
					c-1.1,0.9-2,2.1-2.7,3.4c-0.1,0.3-0.1,0.6-0.2,0.9c-0.4,1.1-0.7,2.2-0.7,3.3c0,0.1-0.1,0.2-0.1,0.4v87.9l-55.5-10.5l31.1-50.8
					c1.9-3.1,2-7,0.3-10.3L16.6,790.6 M16.6,776.8c-4.4,0-8.5,2.1-11.1,5.7c-3.1,4.2-3.5,9.8-1.1,14.5l28.3,54.3L2.6,900.4
					c-2.4,3.9-2.7,8.6-0.8,12.8c1.8,4.1,5.6,7.1,10,8l55.5,10.5c0.9,0.2,1.7,0.2,2.6,0.2c3.2,0,6.3-1.1,8.8-3.2
					c3.2-2.6,5-6.5,5-10.6v-85.5l36.1-12c6-2,9.9-7.8,9.4-14.1c-0.5-6.3-5.2-11.5-11.4-12.5l-98.8-17
					C18.2,776.9,17.4,776.8,16.6,776.8L16.6,776.8z"/>
			</g>
		</g>
		<g>
			<g>
				<path class="st2" d="M461.2,996.1c-127.5,0-254.9-12.7-378.8-37.8c-3.2-0.7-5.5-3.5-5.5-6.8V843.1c0-2.1,0.9-4,2.5-5.3
					c1.2-1,2.8-1.6,4.4-1.6c0.4,0,0.9,0,1.4,0.1c19.9,4,41,7.8,66.4,11.9c0.2,0,0.5,0.1,0.7,0.1c0.1,0,0.1,0,0.2,0
					c101.5,16.5,205.4,24.9,308.8,24.9c103.4,0,207.3-8.4,308.8-24.9c0.1,0,0.2,0,0.3,0c0.2,0,0.5-0.1,0.7-0.1
					c25.5-4.2,46.6-8,66.3-11.9c0.4-0.1,0.9-0.1,1.4-0.1c1.6,0,3.1,0.5,4.4,1.6c1.6,1.3,2.5,3.3,2.5,5.3v108.2
					c0.1,3.4-2.2,6.3-5.5,7C716.1,983.4,588.7,996.1,461.2,996.1z"/>
			</g>
			<g>
				<path d="M838.6,843.1v108.5h0c-124,25.1-250.7,37.7-377.4,37.7s-253.4-12.6-377.4-37.7V843.1c22.2,4.4,44.5,8.3,66.8,12
					c0.2,0,0.4,0.1,0.6,0.1c0,0,0,0,0.1,0c102.3,16.7,206.1,25,309.9,25s207.6-8.3,309.9-25c0,0,0.1,0,0.1,0c0,0,0,0,0,0
					c0.2,0,0.5-0.1,0.7-0.1C794.2,851.4,816.5,847.5,838.6,843.1 M83.8,829.3c-3.2,0-6.2,1.1-8.7,3.1c-3.2,2.6-5,6.5-5,10.7v108.5
					c0,6.6,4.6,12.2,11,13.5c124.3,25.2,252.2,37.9,380.2,37.9s255.8-12.8,380.2-37.9c6.7-1.3,11.3-7.3,11-14.1V843.1
					c0-4.1-1.9-8-5-10.7c-2.5-2-5.6-3.1-8.7-3.1c-0.9,0-1.8,0.1-2.7,0.3c-19.6,3.9-40.5,7.7-65.9,11.8c-0.3,0-0.6,0.1-0.9,0.1
					c-0.1,0-0.1,0-0.2,0c-101.1,16.5-204.7,24.8-307.7,24.8c-103,0-206.6-8.4-307.7-24.8c0,0,0,0-0.1,0c-0.3-0.1-0.5-0.1-0.9-0.1
					c-25.3-4.1-46.3-7.9-66.1-11.9C85.6,829.4,84.7,829.3,83.8,829.3L83.8,829.3z"/>
			</g>
		</g>
		<g>
			<g>
				<path class="st2" d="M852.5,925c-1.6,0-3.1-0.6-4.4-1.6c-1.6-1.3-2.5-3.3-2.5-5.3V831c0-0.3-0.1-0.6-0.1-0.9
					c0-0.2-0.1-0.6-0.3-1.1c-0.1-0.2-0.2-0.5-0.2-0.7c-0.1-0.2-0.2-0.3-0.4-0.5c-0.3-0.1-0.5-0.3-0.8-0.5c-0.1-0.1-0.3-0.2-0.6-0.4
					c-0.1-0.1-0.2-0.1-0.3-0.2l-38.1-12.7c-3-1-4.9-3.9-4.7-7.1c0.2-3.1,2.6-5.7,5.7-6.3l98.8-17c0.4-0.1,0.8-0.1,1.2-0.1
					c2.2,0,4.3,1,5.6,2.8c1.5,2.1,1.8,4.9,0.5,7.2l-29.2,55.9c-0.6,1.1-0.5,2.5,0.1,3.5l31,50.8c1.2,1.9,1.3,4.3,0.4,6.4
					c-0.9,2.1-2.8,3.6-5,4l-55.5,10.5C853.4,925,852.9,925,852.5,925z"/>
			</g>
			<g>
				<path d="M905.8,790.6l-29.2,55.9c-1.7,3.3-1.6,7.2,0.3,10.3l31,50.8l-55.5,10.5v-87.8c0-0.1-0.1-0.2-0.1-0.4
					c0-1.2-0.3-2.3-0.7-3.3c-0.1-0.3-0.1-0.6-0.2-0.9c-0.6-1.3-1.5-2.4-2.7-3.4c-0.1,0-0.1-0.1-0.1-0.1c-0.3-0.3-0.7-0.3-1.1-0.5
					c-0.7-0.5-1.4-1-2.2-1.3L807,807.6L905.8,790.6 M905.8,776.8c-0.8,0-1.6,0.1-2.3,0.2l-98.8,17c-6.2,1.1-10.9,6.2-11.4,12.5
					c-0.5,6.3,3.4,12.1,9.4,14.1l36.1,12v85.5c0,4.1,1.8,8,5,10.6c2.5,2.1,5.6,3.2,8.8,3.2c0.9,0,1.7-0.1,2.6-0.2l55.5-10.5
					c4.4-0.8,8.2-3.8,10-8c1.8-4.1,1.5-8.9-0.8-12.8l-30.1-49.2L918,797c2.4-4.6,2-10.3-1.1-14.5
					C914.3,778.9,910.1,776.8,905.8,776.8L905.8,776.8z"/>
			</g>
		</g>
	</g>
	<g>
		<g>
			<path class="st4" d="M179.2,916.9c0,11.8,0,23.5,0,35.3c-2.8-0.4-4.2-0.6-7-1.1c-1-2.6-1.5-3.9-2.5-6.5
				c-4.5,4.4-9.3,5.7-16.4,4.5c-8-1.3-14.8-5.6-18.1-11.4c-2.9-5-3.8-9.8-3.8-19.6c0-7.8,0-11.7,0-19.5c0-11.3,1.1-15.1,5-18.8
				c3.8-3.5,10.7-4.8,18.7-3.5c9.6,1.5,16.7,5.9,20.6,12.6c2.2,3.8,3.1,8.3,3.1,15.2c-5.4-0.8-8.1-1.2-13.5-2.1
				c0-9.8-3-14.3-10.3-15.5c-3.5-0.6-6.5,0.3-8,2.3c-1.5,2.1-2,4.1-2,9.9c0,8.7,0,13,0,21.7c0,5.8,0.4,9.1,1.5,11.8
				c1.4,3.5,4.9,6.1,9.2,6.8c7.1,1.2,10.1-2.5,10.1-12.4c0-1.1,0-1.7,0-2.9c-4.5-0.7-6.7-1.1-11.2-1.8c0-3.6,0-5.4,0-9
				C164.4,914.7,169.3,915.5,179.2,916.9z"/>
			<path class="st4" d="M297.5,966.2c-5.5-0.5-8.2-0.7-13.7-1.2c0-23.8,0.1-47.6,0.1-71.4c8.6,0.8,12.8,1.1,21.4,1.8
				c8.1,0.7,13.3,2.4,17.6,5.6c5.3,4,8,9.7,8,16.7c0,9-4,15-12,17.7c4.3,11.1,8.7,22.3,13,33.4c-5.8-0.4-8.6-0.6-14.4-1
				c-3.9-10.1-7.8-20.2-11.7-30.3c-3.3-0.3-5-0.4-8.3-0.7C297.5,946.6,297.5,956.4,297.5,966.2z M302.6,927.1
				c5.9,0.5,8.5,0.1,10.7-1.4c2.3-1.6,3.3-4.5,3.3-8.4c0-3.9-1.1-6.8-3.3-8.8c-2.1-1.9-4.8-2.6-10.6-3.1c-2-0.2-3-0.2-5.1-0.4
				c0,8.7,0,13,0,21.7C299.6,926.9,300.6,926.9,302.6,927.1z"/>
			<path class="st4" d="M484,950.4c0,8.1-1.5,12.9-5.1,17c-4,4.5-10.7,7-19.3,7c-8.6,0-15.3-2.4-19.3-7c-3.6-4.1-5.1-9-5.1-17
				c0-10.4,0-15.7,0-26.1c0-8.1,1.5-12.9,5.1-16.9c4-4.5,10.7-6.8,19.2-6.8c8.5,0,15.2,2.3,19.2,6.8c3.6,4,5.1,8.9,5.1,16.9
				C484,934.7,484,939.9,484,950.4z M449.2,950.3c0,5.7,0.4,7.7,1.7,9.8c1.5,2.4,4.9,3.9,8.8,3.9c3.9,0,7.3-1.5,8.8-3.9
				c1.5-2.2,1.7-4,1.7-9.8c0-10.3,0-15.4,0-25.7c0-5.8-0.3-7.6-1.7-9.8c-1.6-2.3-4.9-3.8-8.8-3.9c-3.9,0-7.3,1.5-8.8,3.8
				c-1.4,2.1-1.7,4.1-1.7,9.8C449.2,934.9,449.2,940,449.2,950.3z"/>
			<path class="st4" d="M637.1,893.7c0,16.1,0,32.3,0.1,48.4c0,9-1.3,13.7-5,18.1c-3.8,4.5-10.4,7.4-18.4,8
				c-8.1,0.7-14.7-1.1-18.5-5c-3.7-3.8-5.1-8.3-5.1-17.3c0-16.2-0.1-32.3-0.1-48.5c5.5-0.4,8.2-0.6,13.7-1c0,16.8,0.1,33.5,0.1,50.3
				c0,8.5,2.8,11.7,9.9,11.1c6.9-0.6,9.7-4.2,9.7-12.7c0-16.7,0-33.5-0.1-50.2C628.9,894.4,631.7,894.2,637.1,893.7z"/>
			<path class="st4" d="M756.8,950.1c-5.4,0.9-8.1,1.3-13.5,2.1c0-23.7-0.1-47.4-0.1-71c9-1.3,13.5-2,22.5-3.4
				c8.8-1.4,14.5-0.9,18.6,1.5c4.7,2.8,6.9,7.8,6.9,15.3c0,7.6-2.2,13.3-6.9,17.8c-4.1,3.8-9.7,6.2-18.5,7.6
				c-3.6,0.6-5.4,0.9-8.9,1.4C756.8,932.9,756.8,938.6,756.8,950.1z M762.6,910.3c10.9-1.7,14.3-5,14.3-13.4
				c0-8.3-3.5-10.3-14.4-8.6c-2.4,0.4-3.5,0.6-5.9,0.9c0,8.8,0,13.2,0,22C759.1,910.9,760.3,910.7,762.6,910.3z"/>
		</g>
	</g>
</g>
</svg>
